REM DIRINDEX 1\2,1\4,1\5,1\6,1\7,1\3\8,1\3\9,1\3\10
REM DIRNAME folder01,folder02,folder03,folder04,folder05,folder06,folder07,folder08,folder09,folder10
TITLE ""
FILE "DB4500_5th_4B_40.mp3" MP3
  TRACK 01 AUDIO
    TITLE "8:cjc113_3271"
    INDEX 01 00:00:00
  TRACK 02 AUDIO
    TITLE "0:"
    INDEX 01 00:03:17
  TRACK 03 AUDIO
    TITLE "9:cjc113_3272"
    INDEX 01 00:03:47
  TRACK 04 AUDIO
    TITLE "0:"
    INDEX 01 00:04:64
  TRACK 05 AUDIO
    TITLE "10:cjc113_3273"
    INDEX 01 00:05:12
  TRACK 06 AUDIO
    TITLE "0:"
    INDEX 01 00:08:13
  TRACK 07 AUDIO
    TITLE "8:cjc113_3274"
    INDEX 01 00:08:60
  TRACK 08 AUDIO
    TITLE "0:"
    INDEX 01 00:09:71
  TRACK 09 AUDIO
    TITLE "9:cjc113_3275"
    INDEX 01 00:10:18
  TRACK 10 AUDIO
    TITLE "0:"
    INDEX 01 00:11:48
  TRACK 11 AUDIO
    TITLE "10:cjc113_3276"
    INDEX 01 00:11:70
  TRACK 12 AUDIO
    TITLE "0:"
    INDEX 01 00:15:21
  TRACK 13 AUDIO
    TITLE "8:cjc113_3277"
    INDEX 01 00:15:68
  TRACK 14 AUDIO
    TITLE "0:"
    INDEX 01 00:17:08
  TRACK 15 AUDIO
    TITLE "9:cjc113_3278"
    INDEX 01 00:17:33
  TRACK 16 AUDIO
    TITLE "0:"
    INDEX 01 00:19:11
  TRACK 17 AUDIO
    TITLE "10:cjc113_3279"
    INDEX 01 00:19:36
  TRACK 18 AUDIO
    TITLE "0:"
    INDEX 01 00:22:52
  TRACK 19 AUDIO
    TITLE "8:cjc113_3280"
    INDEX 01 00:23:26
  TRACK 20 AUDIO
    TITLE "0:"
    INDEX 01 00:24:65
  TRACK 21 AUDIO
    TITLE "9:cjc113_3281"
    INDEX 01 00:25:15
  TRACK 22 AUDIO
    TITLE "0:"
    INDEX 01 00:26:40
  TRACK 23 AUDIO
    TITLE "10:cjc113_3282"
    INDEX 01 00:26:66
  TRACK 24 AUDIO
    TITLE "0:"
    INDEX 01 00:31:02
  TRACK 25 AUDIO
    TITLE "8:cjc113_3283"
    INDEX 01 00:31:49
  TRACK 26 AUDIO
    TITLE "0:"
    INDEX 01 00:32:62
  TRACK 27 AUDIO
    TITLE "9:cjc113_3284"
    INDEX 01 00:33:09
  TRACK 28 AUDIO
    TITLE "0:"
    INDEX 01 00:34:30
  TRACK 29 AUDIO
    TITLE "10:cjc113_3285"
    INDEX 01 00:34:53
  TRACK 30 AUDIO
    TITLE "0:"
    INDEX 01 00:38:30
  TRACK 31 AUDIO
    TITLE "8:cjc113_3286"
    INDEX 01 00:39:03
  TRACK 32 AUDIO
    TITLE "0:"
    INDEX 01 00:40:11
  TRACK 33 AUDIO
    TITLE "9:cjc113_3287"
    INDEX 01 00:40:34
  TRACK 34 AUDIO
    TITLE "0:"
    INDEX 01 00:41:49
  TRACK 35 AUDIO
    TITLE "10:cjc113_3288"
    INDEX 01 00:41:65
  TRACK 36 AUDIO
    TITLE "0:"
    INDEX 01 00:44:60
  TRACK 37 AUDIO
    TITLE "10:cjc113_3289"
    INDEX 01 00:45:30
  TRACK 38 AUDIO
    TITLE "0:"
    INDEX 01 00:48:69
  TRACK 39 AUDIO
    TITLE "8:cjc113_3290"
    INDEX 01 00:49:43
  TRACK 40 AUDIO
    TITLE "0:"
    INDEX 01 00:50:68
  TRACK 41 AUDIO
    TITLE "9:cjc113_3291"
    INDEX 01 00:51:15
  TRACK 42 AUDIO
    TITLE "0:"
    INDEX 01 00:52:45
  TRACK 43 AUDIO
    TITLE "10:cjc113_3292"
    INDEX 01 00:52:69
  TRACK 44 AUDIO
    TITLE "0:"
    INDEX 01 00:56:27
  TRACK 45 AUDIO
    TITLE "8:cjc113_3293"
    INDEX 01 00:56:72
  TRACK 46 AUDIO
    TITLE "0:"
    INDEX 01 00:58:15
  TRACK 47 AUDIO
    TITLE "9:cjc113_3294"
    INDEX 01 00:58:40
  TRACK 48 AUDIO
    TITLE "0:"
    INDEX 01 01:00:04
  TRACK 49 AUDIO
    TITLE "10:cjc113_3295"
    INDEX 01 01:00:27
  TRACK 50 AUDIO
    TITLE "0:"
    INDEX 01 01:03:14
  TRACK 51 AUDIO
    TITLE "8:cjc113_3296"
    INDEX 01 01:03:63
  TRACK 52 AUDIO
    TITLE "0:"
    INDEX 01 01:04:68
  TRACK 53 AUDIO
    TITLE "9:cjc113_3297"
    INDEX 01 01:05:13
  TRACK 54 AUDIO
    TITLE "0:"
    INDEX 01 01:06:20
  TRACK 55 AUDIO
    TITLE "10:cjc113_3298"
    INDEX 01 01:06:45
  TRACK 56 AUDIO
    TITLE "0:"
    INDEX 01 01:11:17
  TRACK 57 AUDIO
    TITLE "8:cjc113_3299"
    INDEX 01 01:11:64
  TRACK 58 AUDIO
    TITLE "0:"
    INDEX 01 01:12:62
  TRACK 59 AUDIO
    TITLE "9:cjc113_3300"
    INDEX 01 01:13:14
  TRACK 60 AUDIO
    TITLE "0:"
    INDEX 01 01:14:35
  TRACK 61 AUDIO
    TITLE "10:cjc113_3301"
    INDEX 01 01:14:57
  TRACK 62 AUDIO
    TITLE "0:"
    INDEX 01 01:17:33
  TRACK 63 AUDIO
    TITLE "8:cjc113_3302"
    INDEX 01 01:18:06
  TRACK 64 AUDIO
    TITLE "0:"
    INDEX 01 01:19:09
  TRACK 65 AUDIO
    TITLE "9:cjc113_3303"
    INDEX 01 01:19:34
  TRACK 66 AUDIO
    TITLE "0:"
    INDEX 01 01:20:59
  TRACK 67 AUDIO
    TITLE "10:cjc113_3304"
    INDEX 01 01:21:08
  TRACK 68 AUDIO
    TITLE "0:"
    INDEX 01 01:24:30
